# xmcd
#
# Track frame offsets: 
#        150
#        18975
#        33286
#        51581
#        72498
#        95291
#        113950
#        137252
#        175323
#        195154
#
# Disc length: 2917 seconds
#
# Revision: 0
# Processed by: cddbd v1.5.2PL0 Copyright (c) Steve Scherf et al.
# Submitted via: ExactAudioCopyFreeDBPlugin 1.0
#
DISCID=800b630a
DTITLE=Father Of Pearl Blues Club Band - Live im Hof
DYEAR=2013
DGENRE=Blues
TTITLE0=The Rocker
TTITLE1=Feel So Good
TTITLE2=Trouble In Mind
TTITLE3=Everyday Saturday
TTITLE4=Typisierblues
TTITLE5=Chocolate Jesus
TTITLE6=Waun Da Rausch Passt
TTITLE7=How Blue Can You Get
TTITLE8=Messin' With The Kid
TTITLE9=Dust My Broom
EXTD=
EXTT0=
EXTT1=
EXTT2=
EXTT3=
EXTT4=
EXTT5=
EXTT6=
EXTT7=
EXTT8=
EXTT9=
PLAYORDER=
